<svg width="1280" height="820" viewBox="0 0 1280 820" fill="none" xmlns="http://www.w3.org/2000/svg"><rect width="1280" height="820" rx="36" fill="#FFF8F3"/><rect x="34" y="34" width="1212" height="752" rx="30" fill="white" stroke="#EEDFD5"/><rect x="70" y="74" width="430" height="636" rx="24" fill="#FFF8F3"/><rect x="528" y="74" width="682" height="636" rx="24" fill="#FFF8F3"/><rect x="108" y="112" width="176" height="18" rx="9" fill="#3B2C24"/><rect x="108" y="176" width="354" height="88" rx="18" fill="#FFFFFF" stroke="#F0E1D7"/><rect x="108" y="286" width="354" height="88" rx="18" fill="#FFFFFF" stroke="#F0E1D7"/><rect x="108" y="396" width="354" height="88" rx="18" fill="#FFFFFF" stroke="#F0E1D7"/><rect x="108" y="506" width="354" height="88" rx="18" fill="#FFFFFF" stroke="#F0E1D7"/><rect x="146" y="206" width="172" height="14" rx="7" fill="#3B2C24"/><rect x="146" y="316" width="160" height="14" rx="7" fill="#3B2C24"/><rect x="146" y="426" width="190" height="14" rx="7" fill="#3B2C24"/><rect x="146" y="536" width="166" height="14" rx="7" fill="#3B2C24"/><rect x="364" y="202" width="60" height="18" rx="9" fill="#2E8B74"/><rect x="364" y="312" width="60" height="18" rx="9" fill="#E95B48"/><rect x="364" y="422" width="60" height="18" rx="9" fill="#2E8B74"/><rect x="364" y="532" width="60" height="18" rx="9" fill="#E95B48"/><rect x="566" y="112" width="170" height="18" rx="9" fill="#3B2C24"/><rect x="566" y="170" width="606" height="486" rx="22" fill="#FFFFFF" stroke="#F0E1D7"/><path d="M624 236H1110" stroke="#EFDCCF" stroke-width="6" stroke-linecap="round"/><path d="M624 316H1110" stroke="#EFDCCF" stroke-width="6" stroke-linecap="round"/><path d="M624 396H1110" stroke="#EFDCCF" stroke-width="6" stroke-linecap="round"/><path d="M624 476H1110" stroke="#EFDCCF" stroke-width="6" stroke-linecap="round"/><path d="M624 556H1110" stroke="#EFDCCF" stroke-width="6" stroke-linecap="round"/><rect x="704" y="216" width="100" height="40" rx="14" fill="#E95B48"/><rect x="876" y="376" width="100" height="40" rx="14" fill="#2E8B74"/><rect x="1028" y="536" width="100" height="40" rx="14" fill="#E95B48"/></svg>
