<svg width="1280" height="820" viewBox="0 0 1280 820" fill="none" xmlns="http://www.w3.org/2000/svg"><rect width="1280" height="820" rx="36" fill="#FFF8F3"/><rect x="34" y="34" width="1212" height="752" rx="30" fill="white" stroke="#EEDFD5"/><rect x="70" y="74" width="1140" height="130" rx="24" fill="#FFF8F3"/><rect x="70" y="238" width="1140" height="472" rx="24" fill="#FFF8F3"/><rect x="108" y="116" width="220" height="18" rx="9" fill="#3B2C24"/><rect x="108" y="272" width="532" height="400" rx="22" fill="#FFFFFF" stroke="#F0E1D7"/><rect x="670" y="272" width="502" height="400" rx="22" fill="#FFFFFF" stroke="#F0E1D7"/><circle cx="166" cy="340" r="34" fill="#F8D0C0"/><circle cx="166" cy="438" r="34" fill="#F1D8C8"/><circle cx="166" cy="536" r="34" fill="#D8EADF"/><rect x="222" y="324" width="148" height="16" rx="8" fill="#3B2C24"/><rect x="222" y="420" width="190" height="16" rx="8" fill="#3B2C24"/><rect x="222" y="518" width="150" height="16" rx="8" fill="#3B2C24"/><rect x="474" y="320" width="112" height="22" rx="11" fill="#2E8B74"/><rect x="474" y="416" width="96" height="22" rx="11" fill="#E95B48"/><rect x="474" y="514" width="122" height="22" rx="11" fill="#2E8B74"/><rect x="708" y="314" width="174" height="16" rx="8" fill="#3B2C24"/><rect x="708" y="366" width="426" height="64" rx="18" fill="#FCF4EE"/><rect x="740" y="392" width="214" height="12" rx="6" fill="#C9B3A6"/><rect x="708" y="458" width="426" height="64" rx="18" fill="#FCF4EE"/><rect x="740" y="484" width="228" height="12" rx="6" fill="#C9B3A6"/><rect x="708" y="550" width="426" height="84" rx="18" fill="#FFF5EE"/><rect x="740" y="582" width="260" height="12" rx="6" fill="#C9B3A6"/><rect x="740" y="606" width="124" height="14" rx="7" fill="#E95B48"/></svg>
