<svg width="1280" height="820" viewBox="0 0 1280 820" fill="none" xmlns="http://www.w3.org/2000/svg"><rect width="1280" height="820" rx="36" fill="#FFF8F3"/><rect x="34" y="34" width="1212" height="752" rx="30" fill="white" stroke="#EEDFD5"/><rect x="70" y="74" width="1140" height="88" rx="24" fill="#FFF8F3"/><rect x="70" y="196" width="1140" height="550" rx="24" fill="#FFF8F3"/><rect x="108" y="110" width="206" height="18" rx="9" fill="#3B2C24"/><rect x="108" y="236" width="168" height="42" rx="14" fill="#E95B48"/><rect x="300" y="236" width="168" height="42" rx="14" fill="#FFFFFF" stroke="#EEDFD5"/><rect x="492" y="236" width="168" height="42" rx="14" fill="#FFFFFF" stroke="#EEDFD5"/><rect x="108" y="318" width="1064" height="68" rx="18" fill="#FFFFFF" stroke="#F0E1D7"/><rect x="108" y="408" width="1064" height="68" rx="18" fill="#FFFFFF" stroke="#F0E1D7"/><rect x="108" y="498" width="1064" height="68" rx="18" fill="#FFFFFF" stroke="#F0E1D7"/><rect x="108" y="588" width="1064" height="68" rx="18" fill="#FFFFFF" stroke="#F0E1D7"/><rect x="144" y="340" width="122" height="12" rx="6" fill="#C9B3A6"/><rect x="144" y="430" width="138" height="12" rx="6" fill="#C9B3A6"/><rect x="144" y="520" width="118" height="12" rx="6" fill="#C9B3A6"/><rect x="144" y="610" width="148" height="12" rx="6" fill="#C9B3A6"/><rect x="344" y="336" width="228" height="18" rx="9" fill="#3B2C24"/><rect x="344" y="426" width="260" height="18" rx="9" fill="#3B2C24"/><rect x="344" y="516" width="214" height="18" rx="9" fill="#3B2C24"/><rect x="344" y="606" width="264" height="18" rx="9" fill="#3B2C24"/><rect x="1020" y="336" width="116" height="18" rx="9" fill="#2E8B74"/><rect x="1020" y="426" width="104" height="18" rx="9" fill="#E95B48"/><rect x="1020" y="516" width="88" height="18" rx="9" fill="#2E8B74"/><rect x="1020" y="606" width="92" height="18" rx="9" fill="#E95B48"/></svg>
