<svg width="1280" height="820" viewBox="0 0 1280 820" fill="none" xmlns="http://www.w3.org/2000/svg"><rect width="1280" height="820" rx="36" fill="#FFF8F3"/><rect x="34" y="34" width="1212" height="752" rx="30" fill="white" stroke="#EEDFD5"/><rect x="70" y="74" width="1140" height="102" rx="24" fill="#FFF8F3"/><rect x="70" y="210" width="556" height="500" rx="24" fill="#FFF8F3"/><rect x="654" y="210" width="556" height="500" rx="24" fill="#FFF8F3"/><rect x="108" y="114" width="248" height="18" rx="9" fill="#3B2C24"/><rect x="108" y="248" width="194" height="16" rx="8" fill="#3B2C24"/><rect x="108" y="292" width="480" height="364" rx="20" fill="#FFFFFF" stroke="#F0E1D7"/><rect x="692" y="248" width="226" height="16" rx="8" fill="#3B2C24"/><rect x="692" y="292" width="480" height="364" rx="20" fill="#FFFFFF" stroke="#F0E1D7"/><rect x="144" y="332" width="160" height="12" rx="6" fill="#D6C3B7"/><rect x="144" y="378" width="110" height="220" rx="16" fill="#FCE5DB"/><rect x="274" y="430" width="110" height="168" rx="16" fill="#F7C6B3"/><rect x="404" y="470" width="110" height="128" rx="16" fill="#E95B48"/><rect x="728" y="332" width="180" height="12" rx="6" fill="#D6C3B7"/><rect x="728" y="378" width="408" height="56" rx="18" fill="#FCF4EE"/><rect x="754" y="400" width="190" height="12" rx="6" fill="#3B2C24"/><rect x="1026" y="396" width="84" height="18" rx="9" fill="#2E8B74"/><rect x="728" y="454" width="408" height="56" rx="18" fill="#FCF4EE"/><rect x="754" y="476" width="214" height="12" rx="6" fill="#3B2C24"/><rect x="1026" y="472" width="76" height="18" rx="9" fill="#E95B48"/><rect x="728" y="530" width="408" height="56" rx="18" fill="#FCF4EE"/><rect x="754" y="552" width="172" height="12" rx="6" fill="#3B2C24"/><rect x="1026" y="548" width="68" height="18" rx="9" fill="#2E8B74"/></svg>
