<svg width="1280" height="820" viewBox="0 0 1280 820" fill="none" xmlns="http://www.w3.org/2000/svg"><rect width="1280" height="820" rx="36" fill="#FFF8F3"/><rect x="34" y="34" width="1212" height="752" rx="30" fill="white" stroke="#EEDFD5"/><rect x="70" y="74" width="1140" height="124" rx="24" fill="#FFF8F3"/><rect x="70" y="232" width="548" height="478" rx="24" fill="#FFF8F3"/><rect x="662" y="232" width="548" height="478" rx="24" fill="#FFF8F3"/><rect x="108" y="116" width="226" height="18" rx="9" fill="#3B2C24"/><rect x="108" y="270" width="472" height="154" rx="26" fill="#EA5A47"/><rect x="142" y="304" width="72" height="50" rx="14" fill="#F8D6CA"/><rect x="142" y="376" width="196" height="16" rx="8" fill="#FDEDE6"/><rect x="108" y="458" width="472" height="214" rx="22" fill="#FFFFFF" stroke="#F0E1D7"/><rect x="144" y="500" width="166" height="14" rx="7" fill="#3B2C24"/><rect x="144" y="548" width="400" height="18" rx="9" fill="#FCF4EE"/><rect x="144" y="586" width="320" height="18" rx="9" fill="#FCF4EE"/><rect x="476" y="500" width="68" height="18" rx="9" fill="#2E8B74"/><rect x="700" y="270" width="472" height="402" rx="22" fill="#FFFFFF" stroke="#F0E1D7"/><rect x="736" y="312" width="186" height="14" rx="7" fill="#3B2C24"/><rect x="736" y="360" width="398" height="88" rx="20" fill="#FCF4EE"/><rect x="766" y="394" width="208" height="12" rx="6" fill="#D0BCB0"/><rect x="736" y="470" width="398" height="88" rx="20" fill="#FCF4EE"/><rect x="766" y="504" width="236" height="12" rx="6" fill="#D0BCB0"/><rect x="736" y="580" width="398" height="52" rx="18" fill="#FFF6EE"/><rect x="766" y="598" width="158" height="16" rx="8" fill="#E95B48"/></svg>
