<svg width="1280" height="820" viewBox="0 0 1280 820" fill="none" xmlns="http://www.w3.org/2000/svg"><rect width="1280" height="820" rx="36" fill="#FFF8F3"/><rect x="34" y="34" width="1212" height="752" rx="30" fill="white" stroke="#EEDFD5"/><rect x="70" y="74" width="260" height="672" rx="24" fill="#FCF4EE"/><rect x="372" y="74" width="838" height="88" rx="24" fill="#FFF8F3"/><rect x="372" y="196" width="252" height="164" rx="24" fill="#FFF8F3"/><rect x="664" y="196" width="252" height="164" rx="24" fill="#FFF8F3"/><rect x="956" y="196" width="254" height="164" rx="24" fill="#FFF8F3"/><rect x="372" y="394" width="838" height="314" rx="24" fill="#FFF8F3"/><rect x="108" y="120" width="140" height="16" rx="8" fill="#E95B48"/><rect x="108" y="164" width="184" height="12" rx="6" fill="#D6C3B7"/><rect x="108" y="214" width="148" height="12" rx="6" fill="#D6C3B7"/><rect x="108" y="264" width="168" height="12" rx="6" fill="#D6C3B7"/><rect x="108" y="314" width="152" height="12" rx="6" fill="#D6C3B7"/><rect x="410" y="108" width="244" height="18" rx="9" fill="#3B2C24"/><rect x="410" y="228" width="96" height="12" rx="6" fill="#C9B3A6"/><rect x="410" y="260" width="132" height="40" rx="14" fill="#E95B48"/><rect x="702" y="228" width="84" height="12" rx="6" fill="#C9B3A6"/><rect x="702" y="260" width="154" height="72" rx="18" fill="#FFFFFF" stroke="#F0E1D7"/><path d="M724 312L756 286L790 294L830 250" stroke="#E95B48" stroke-width="10" stroke-linecap="round" stroke-linejoin="round"/><circle cx="830" cy="250" r="10" fill="#E95B48"/><rect x="994" y="228" width="110" height="12" rx="6" fill="#C9B3A6"/><rect x="994" y="262" width="176" height="18" rx="9" fill="#2E8B74"/><rect x="994" y="292" width="132" height="12" rx="6" fill="#C9B3A6"/><rect x="410" y="432" width="202" height="14" rx="7" fill="#3B2C24"/><rect x="410" y="474" width="760" height="174" rx="20" fill="#FFFFFF" stroke="#F0E1D7"/><rect x="442" y="512" width="202" height="12" rx="6" fill="#D7C6BB"/><rect x="442" y="556" width="320" height="16" rx="8" fill="#3B2C24"/><rect x="442" y="598" width="120" height="14" rx="7" fill="#2E8B74"/><rect x="1040" y="556" width="96" height="16" rx="8" fill="#E95B48"/></svg>
