<svg width="1200" height="900" viewBox="0 0 1200 900" fill="none" xmlns="http://www.w3.org/2000/svg">
  <rect width="1200" height="900" rx="48" fill="#FFF8F4"/>
  <rect x="104" y="96" width="992" height="708" rx="36" fill="#FFFFFF" stroke="#EFE4DB" stroke-width="8"/>
  <rect x="156" y="152" width="888" height="76" rx="24" fill="#FFF1EA"/>
  <text x="196" y="198" fill="#1E293B" font-family="Arial, sans-serif" font-size="30" font-weight="700">Android · Install the app</text>
  <rect x="156" y="268" width="420" height="460" rx="28" fill="#FFFFFF" stroke="#F2E8E1" stroke-width="6"/>
  <circle cx="246" cy="372" r="34" fill="#FFF1EA"/>
  <text x="234" y="384" fill="#EA5A47" font-family="Arial, sans-serif" font-size="28" font-weight="700">1</text>
  <text x="304" y="360" fill="#0F172A" font-family="Arial, sans-serif" font-size="28" font-weight="700">Open Soamco Budget</text>
  <text x="304" y="402" fill="#475569" font-family="Arial, sans-serif" font-size="22">in your browser.</text>
  <circle cx="246" cy="502" r="34" fill="#FFF1EA"/>
  <text x="234" y="514" fill="#EA5A47" font-family="Arial, sans-serif" font-size="28" font-weight="700">2</text>
  <text x="304" y="490" fill="#0F172A" font-family="Arial, sans-serif" font-size="28" font-weight="700">Open the browser menu</text>
  <text x="304" y="532" fill="#475569" font-family="Arial, sans-serif" font-size="22">and choose “Install app” or</text>
  <text x="304" y="564" fill="#475569" font-family="Arial, sans-serif" font-size="22">“Add to Home screen”.</text>
  <circle cx="246" cy="632" r="34" fill="#FFF1EA"/>
  <text x="234" y="644" fill="#EA5A47" font-family="Arial, sans-serif" font-size="28" font-weight="700">3</text>
  <text x="304" y="620" fill="#0F172A" font-family="Arial, sans-serif" font-size="28" font-weight="700">Confirm</text>
  <text x="304" y="662" fill="#475569" font-family="Arial, sans-serif" font-size="22">The icon will appear on your Home screen.</text>
  <rect x="634" y="268" width="350" height="460" rx="38" fill="#0F172A"/>
  <rect x="662" y="318" width="294" height="346" rx="28" fill="#FFFDFB"/>
  <rect x="692" y="364" width="234" height="64" rx="20" fill="#FFF1EA"/>
  <text x="740" y="405" fill="#EA5A47" font-family="Arial, sans-serif" font-size="26" font-weight="700">Install app</text>
  <rect x="692" y="454" width="234" height="64" rx="20" fill="#FFFFFF" stroke="#E7DAD1" stroke-width="4"/>
  <text x="728" y="495" fill="#334155" font-family="Arial, sans-serif" font-size="24" font-weight="700">Add to Home</text>
  <rect x="726" y="554" width="166" height="54" rx="20" fill="#EA5A47"/>
  <text x="777" y="588" fill="#FFFFFF" font-family="Arial, sans-serif" font-size="24" font-weight="700">Install</text>
</svg>
